<!DOCTYPE svg PUBLIC "-//W3C//DTD SVG 1.1//EN" "http://www.w3.org/Graphics/SVG/1.1/DTD/svg11.dtd">
<!-- Uploaded to: SVG Repo, www.svgrepo.com, Transformed by: SVG Repo Mixer Tools -->
<svg fill="#000000" width="64px" height="64px" viewBox="0 0 256 256" id="Flat" xmlns="http://www.w3.org/2000/svg">
<g id="SVGRepo_bgCarrier" stroke-width="0"/>
<g id="SVGRepo_tracerCarrier" stroke-linecap="round" stroke-linejoin="round"/>
<g id="SVGRepo_iconCarrier"> <path d="M238.96387,206.2334,224.74219,78.23291A15.98372,15.98372,0,0,0,208.83984,64h-33.519a47.99073,47.99073,0,0,0-94.6416,0h-33.519A15.98375,15.98375,0,0,0,31.25781,78.2334l-14.22168,128A16.00031,16.00031,0,0,0,32.93848,224h190.123a16.00031,16.00031,0,0,0,15.90235-17.7666ZM128,40a32.05773,32.05773,0,0,1,30.9873,24H97.0127A32.05773,32.05773,0,0,1,128,40Z"/> </g>
</svg>